<?xml version="1.0" encoding="utf-8"?>
<!-- Generator: Adobe Illustrator 16.0.0, SVG Export Plug-In . SVG Version: 6.00 Build 0)  -->
<!DOCTYPE svg PUBLIC "-//W3C//DTD SVG 1.1//EN" "http://www.w3.org/Graphics/SVG/1.1/DTD/svg11.dtd">
<svg version="1.1" id="Layer_1" xmlns="http://www.w3.org/2000/svg" xmlns:xlink="http://www.w3.org/1999/xlink" x="0px" y="0px"
	 width="300px" height="300px" viewBox="0 0 300 300" enable-background="new 0 0 300 300" xml:space="preserve">
<g>
	<g>
		<g>
			<path fill="#39B5AC" d="M273.407,147.101c0,67.985-55.116,123.097-123.098,123.097c-67.987,0-123.097-55.111-123.097-123.097
				C27.212,79.113,82.322,24,150.309,24C218.291,24,273.407,79.113,273.407,147.101z"/>
			<path fill="#39B5AC" stroke="#F1F2F2" stroke-width="2" d="M260.283,147.101c0,60.735-49.241,109.974-109.974,109.974
				c-60.742,0-109.979-49.238-109.979-109.974c0-60.742,49.237-109.979,109.979-109.979
				C211.042,37.122,260.283,86.359,260.283,147.101z"/>
			<path fill="none" stroke="#F1F2F2" stroke-dasharray="2,1" d="M252.035,147.101c0,56.185-45.544,101.728-101.726,101.728
				c-56.191,0-101.73-45.543-101.73-101.728c0-56.186,45.54-101.732,101.73-101.732C206.491,45.369,252.035,90.915,252.035,147.101z
				"/>
		</g>
		<g>
			<path fill="#EF5B7F" d="M281.364,223.799l18.198-23.203l0.105-0.193c-45.284-21.07-95.765-32.854-148.999-32.854
				c-53.522,0-104.253,11.911-149.722,33.187l18.081,22.754l-5.282,34.666l-0.182,0.479c43.519-19.154,86.5-29.812,137.106-29.812
				c50.161,0,93.768,10.469,136.997,29.311L281.364,223.799z"/>
		</g>
		<g>
			<path fill="none" stroke="#F1F2F2" stroke-dasharray="2,1" d="M13.746,254.008l-0.182,0.479
				c43.525-19.154,86.493-29.812,137.106-29.812c50.161,0,93.768,10.469,136.997,29.311"/>
			<path fill="none" stroke="#F1F2F2" stroke-dasharray="2,1" d="M299.562,204.742l0.105-0.193
				c-45.284-21.07-95.765-32.854-148.999-32.854c-53.522,0-104.253,11.91-149.722,33.186"/>
		</g>
	</g>
</g>
</svg>
